# xmcd
#
# Track frame offsets:
#	150
#	13998
#	29516
#	44659
#	62886
#	79375
#	92422
#	105755
#	119489
#	133670
#	146522
#	167390
#	182501
#
# Disc length: 2670 seconds
# Revision: 0
# Processed by: cddbd v1.5.2PL0 Copyright (c) Steve Scherf et al.
# Submitted via: dBpowerAMP V12.0
#
DISCID=ac0a6c0d
DTITLE=Various Artist - God Didn't Choose Sides, Vol. 1: Civil War True Stories About Real People
DYEAR=2013
DGENRE=Country
TTITLE0=Steve Gulley - I'm Almost Home
TTITLE1=Russell Moore - A Picture of Three Children
TTITLE2=The Lonesome River Band - The Legend of Jennie Wade
TTITLE3=Dale Ann Bradley - Christmas in Savannah
TTITLE4=Tim Stafford - Providence Spring
TTITLE5=Dwight McCall - Old John Burns
TTITLE6=Ronnie Bowman - The Lady in Grey
TTITLE7=Bradley Walker - Last Day at Vicksburg
TTITLE8=Brad Gulley - Rebel Hart
TTITLE9=Carrie Hassler - Carrie's Graveyard Book
TTITLE10=Dave Adkins - The River Man
TTITLE11=Marty Raybon - God Didn't Choose Sides
TTITLE12=Gap Creek Quartet - There is a Fountain
EXTD=
EXTT0=
EXTT1=
EXTT2=
EXTT3=
EXTT4=
EXTT5=
EXTT6=
EXTT7=
EXTT8=
EXTT9=
EXTT10=
EXTT11=
EXTT12=
PLAYORDER=
